<?xml version="1.0" encoding="utf-8"?>
<!-- Generator: Adobe Illustrator 19.2.1, SVG Export Plug-In . SVG Version: 6.00 Build 0)  -->
<svg version="1.1" id="Layer_1" xmlns="http://www.w3.org/2000/svg" xmlns:xlink="http://www.w3.org/1999/xlink" x="0px" y="0px"
	 viewBox="0 0 28 28" style="enable-background:new 0 0 28 28;" xml:space="preserve">
<style type="text/css">
	.st0{fill:#FFFFFF;}
</style>
<g>
	<circle cx="14" cy="14" r="14"/>
	<g id="Lozenge_11_">
		<g>
			<path class="st0" d="M22.4,10.6c0,0-0.2-1.2-0.7-1.7C21,8.2,20.3,8.2,20,8.2C17.6,8,14,8,14,8l0,0c0,0-3.6,0-6,0.2
				c-0.3,0-1.1,0-1.7,0.7c-0.5,0.5-0.7,1.7-0.7,1.7S5.5,12,5.5,13.4v1.3c0,1.4,0.2,2.8,0.2,2.8s0.2,1.2,0.7,1.7
				c0.6,0.7,1.5,0.7,1.9,0.7C9.6,20,14,20,14,20s3.6,0,6-0.2c0.3,0,1.1,0,1.7-0.7c0.5-0.5,0.7-1.7,0.7-1.7s0.2-1.4,0.2-2.8v-1.3
				C22.5,12,22.4,10.6,22.4,10.6z M12.2,16.2v-4.8l4.6,2.4L12.2,16.2z"/>
		</g>
	</g>
</g>
</svg>
